<?xml version="1.0" encoding="UTF-8" standalone="no"?>
<!DOCTYPE svg PUBLIC "-//W3C//DTD SVG 1.1//EN" "http://www.w3.org/Graphics/SVG/1.1/DTD/svg11.dtd">
<!-- 由 Microsoft Visio, SVG Export 生成 堆结构.svg Page-1 -->
<svg xmlns="http://www.w3.org/2000/svg" xmlns:xlink="http://www.w3.org/1999/xlink" xmlns:ev="http://www.w3.org/2001/xml-events"
		xmlns:v="http://schemas.microsoft.com/visio/2003/SVGExtensions/" width="5.34186in" height="2.15112in"
		viewBox="0 0 384.614 154.881" xml:space="preserve" color-interpolation-filters="sRGB" class="st5">
	<v:documentProperties v:langID="2052" v:metric="true" v:viewMarkup="false">
		<v:userDefs>
			<v:ud v:nameU="msvNoAutoConnect" v:val="VT0(1):26"/>
		</v:userDefs>
	</v:documentProperties>

	<style type="text/css">
	<![CDATA[
		.st1 {fill:#f2f2f2;stroke:#000000;stroke-linecap:round;stroke-linejoin:round;stroke-width:0.24}
		.st2 {fill:#000000;font-family:宋体;font-size:0.666664em}
		.st3 {stroke:#000000;stroke-linecap:round;stroke-linejoin:round;stroke-width:0.24}
		.st4 {fill:none;stroke:none;stroke-linecap:round;stroke-linejoin:round;stroke-width:0.75}
		.st5 {fill:none;fill-rule:evenodd;font-size:12px;overflow:visible;stroke-linecap:square;stroke-miterlimit:3}
	]]>
	</style>

	<g v:mID="0" v:index="1" v:groupContext="foregroundPage">
		<title>页-1</title>
		<v:pageProperties v:drawingScale="0.0393701" v:pageScale="0.0393701" v:drawingUnits="24" v:shadowOffsetX="8.50394"
				v:shadowOffsetY="-8.50394"/>
		<v:layer v:name="流程图" v:index="0"/>
		<v:layer v:name="连接线" v:index="1"/>
		<g id="shape19-1" v:mID="19" v:groupContext="shape" v:layerMember="0" transform="translate(102.617,-105.994)">
			<title>数据流程</title>
			<desc>14</desc>
			<v:custProps>
				<v:cp v:nameU="Cost" v:lbl="成本" v:type="7" v:format="@" v:langID="2052"/>
				<v:cp v:nameU="Duration" v:lbl="持续时间" v:type="2" v:langID="2052"/>
				<v:cp v:nameU="Resources" v:lbl="资源" v:langID="2052"/>
			</v:custProps>
			<v:userDefs>
				<v:ud v:nameU="visVersion" v:val="VT0(15):26"/>
			</v:userDefs>
			<v:textBlock v:margins="rect(1,1,1,1)" v:tabSpace="42.5197"/>
			<v:textRect cx="9.92126" cy="144.96" width="19.85" height="19.8425"/>
			<path d="M0 144.96 A9.92126 9.92126 0 0 1 19.84 144.96 A9.92126 9.92126 0 1 1 0 144.96 Z" class="st1"/>
			<text x="5.92" y="147.36" class="st2" v:langID="2052"><v:paragraph v:horizAlign="1"/><v:tabList/>14</text>		</g>
		<g id="shape32-4" v:mID="32" v:groupContext="shape" v:layerMember="0" transform="translate(50.7963,-66.309)">
			<title>数据流程.32</title>
			<desc>8</desc>
			<v:custProps>
				<v:cp v:nameU="Cost" v:lbl="成本" v:type="7" v:format="@" v:langID="2052"/>
				<v:cp v:nameU="Duration" v:lbl="持续时间" v:type="2" v:langID="2052"/>
				<v:cp v:nameU="Resources" v:lbl="资源" v:langID="2052"/>
			</v:custProps>
			<v:userDefs>
				<v:ud v:nameU="visVersion" v:val="VT0(15):26"/>
			</v:userDefs>
			<v:textBlock v:margins="rect(1,1,1,1)" v:tabSpace="42.5197"/>
			<v:textRect cx="9.92126" cy="144.96" width="19.85" height="19.8425"/>
			<path d="M0 144.96 A9.92126 9.92126 0 0 1 19.84 144.96 A9.92126 9.92126 0 1 1 0 144.96 Z" class="st1"/>
			<text x="7.92" y="147.36" class="st2" v:langID="2052"><v:paragraph v:horizAlign="1"/><v:tabList/>8</text>		</g>
		<g id="shape35-7" v:mID="35" v:groupContext="shape" v:layerMember="0" transform="translate(78.5226,-18.12)">
			<title>数据流程.35</title>
			<desc>4</desc>
			<v:custProps>
				<v:cp v:nameU="Cost" v:lbl="成本" v:type="7" v:format="@" v:langID="2052"/>
				<v:cp v:nameU="Duration" v:lbl="持续时间" v:type="2" v:langID="2052"/>
				<v:cp v:nameU="Resources" v:lbl="资源" v:langID="2052"/>
			</v:custProps>
			<v:userDefs>
				<v:ud v:nameU="visVersion" v:val="VT0(15):26"/>
			</v:userDefs>
			<v:textBlock v:margins="rect(1,1,1,1)" v:tabSpace="42.5197"/>
			<v:textRect cx="9.92126" cy="144.96" width="19.85" height="19.8425"/>
			<path d="M0 144.96 A9.92126 9.92126 0 0 1 19.84 144.96 A9.92126 9.92126 0 1 1 0 144.96 Z" class="st1"/>
			<text x="7.92" y="147.36" class="st2" v:langID="2052"><v:paragraph v:horizAlign="1"/><v:tabList/>4</text>		</g>
		<g id="shape37-10" v:mID="37" v:groupContext="shape" v:layerMember="0" transform="translate(18.375,-18.12)">
			<title>数据流程.37</title>
			<desc>2</desc>
			<v:custProps>
				<v:cp v:nameU="Cost" v:lbl="成本" v:type="7" v:format="@" v:langID="2052"/>
				<v:cp v:nameU="Duration" v:lbl="持续时间" v:type="2" v:langID="2052"/>
				<v:cp v:nameU="Resources" v:lbl="资源" v:langID="2052"/>
			</v:custProps>
			<v:userDefs>
				<v:ud v:nameU="visVersion" v:val="VT0(15):26"/>
			</v:userDefs>
			<v:textBlock v:margins="rect(1,1,1,1)" v:tabSpace="42.5197"/>
			<v:textRect cx="9.92126" cy="144.96" width="19.85" height="19.8425"/>
			<path d="M0 144.96 A9.92126 9.92126 0 0 1 19.84 144.96 A9.92126 9.92126 0 1 1 0 144.96 Z" class="st1"/>
			<text x="7.92" y="147.36" class="st2" v:langID="2052"><v:paragraph v:horizAlign="1"/><v:tabList/>2</text>		</g>
		<g id="shape38-13" v:mID="38" v:groupContext="shape" v:layerMember="0" transform="translate(122.46,-18.12)">
			<title>数据流程.38</title>
			<desc>1</desc>
			<v:custProps>
				<v:cp v:nameU="Cost" v:lbl="成本" v:type="7" v:format="@" v:langID="2052"/>
				<v:cp v:nameU="Duration" v:lbl="持续时间" v:type="2" v:langID="2052"/>
				<v:cp v:nameU="Resources" v:lbl="资源" v:langID="2052"/>
			</v:custProps>
			<v:userDefs>
				<v:ud v:nameU="visVersion" v:val="VT0(15):26"/>
			</v:userDefs>
			<v:textBlock v:margins="rect(1,1,1,1)" v:tabSpace="42.5197"/>
			<v:textRect cx="9.92126" cy="144.96" width="19.85" height="19.8425"/>
			<path d="M0 144.96 A9.92126 9.92126 0 0 1 19.84 144.96 A9.92126 9.92126 0 1 1 0 144.96 Z" class="st1"/>
			<text x="7.92" y="147.36" class="st2" v:langID="2052"><v:paragraph v:horizAlign="1"/><v:tabList/>1</text>		</g>
		<g id="shape47-16" v:mID="47" v:groupContext="shape" transform="translate(201.135,164.264) rotate(141.087)">
			<title>工作表.47</title>
			<path d="M0 154.88 L45.56 154.88" class="st3"/>
		</g>
		<g id="shape48-19" v:mID="48" v:groupContext="shape" transform="translate(189.572,159.824) rotate(118.636)">
			<title>工作表.48</title>
			<path d="M0 154.88 L38.73 154.88" class="st3"/>
		</g>
		<g id="shape49-22" v:mID="49" v:groupContext="shape" transform="translate(211.798,27.8728) rotate(68.1985)">
			<title>工作表.49</title>
			<path d="M0 154.88 L36.83 154.88" class="st3"/>
		</g>
		<g id="shape50-25" v:mID="50" v:groupContext="shape" transform="translate(215.142,-78.7007) rotate(37.4603)">
			<title>工作表.50</title>
			<path d="M0 154.88 L44.61 154.88" class="st3"/>
		</g>
		<g id="shape51-28" v:mID="51" v:groupContext="shape" transform="translate(295.17,155.217) rotate(117.228)">
			<title>工作表.51</title>
			<path d="M0 154.88 L39.48 154.88" class="st3"/>
		</g>
		<g id="shape52-31" v:mID="52" v:groupContext="shape" transform="translate(227.342,-69.2224)">
			<title>工作表.52</title>
			<rect x="0" y="135.038" width="19.8425" height="19.8425" class="st1"/>
		</g>
		<g id="shape53-33" v:mID="53" v:groupContext="shape" transform="translate(247.184,-69.2224)">
			<title>工作表.53</title>
			<desc>14</desc>
			<v:textBlock v:margins="rect(1,1,1,1)" v:tabSpace="42.5197"/>
			<v:textRect cx="9.92126" cy="144.96" width="19.85" height="19.8425"/>
			<rect x="0" y="135.038" width="19.8425" height="19.8425" class="st1"/>
			<text x="5.92" y="147.36" class="st2" v:langID="2052"><v:paragraph v:horizAlign="1"/><v:tabList/>14</text>		</g>
		<g id="shape55-36" v:mID="55" v:groupContext="shape" transform="translate(267.027,-69.2224)">
			<title>工作表.55</title>
			<desc>8</desc>
			<v:textBlock v:margins="rect(1,1,1,1)" v:tabSpace="42.5197"/>
			<v:textRect cx="9.92126" cy="144.96" width="19.85" height="19.8425"/>
			<rect x="0" y="135.038" width="19.8425" height="19.8425" class="st1"/>
			<text x="7.92" y="147.36" class="st2" v:langID="2052"><v:paragraph v:horizAlign="1"/><v:tabList/>8</text>		</g>
		<g id="shape56-39" v:mID="56" v:groupContext="shape" transform="translate(286.869,-69.2224)">
			<title>工作表.56</title>
			<desc>7</desc>
			<v:textBlock v:margins="rect(1,1,1,1)" v:tabSpace="42.5197"/>
			<v:textRect cx="9.92126" cy="144.96" width="19.85" height="19.8425"/>
			<rect x="0" y="135.038" width="19.8425" height="19.8425" class="st1"/>
			<text x="7.92" y="147.36" class="st2" v:langID="2052"><v:paragraph v:horizAlign="1"/><v:tabList/>7</text>		</g>
		<g id="shape57-42" v:mID="57" v:groupContext="shape" transform="translate(306.712,-69.2224)">
			<title>工作表.57</title>
			<desc>2</desc>
			<v:textBlock v:margins="rect(1,1,1,1)" v:tabSpace="42.5197"/>
			<v:textRect cx="9.92126" cy="144.96" width="19.85" height="19.8425"/>
			<rect x="0" y="135.038" width="19.8425" height="19.8425" class="st1"/>
			<text x="7.92" y="147.36" class="st2" v:langID="2052"><v:paragraph v:horizAlign="1"/><v:tabList/>2</text>		</g>
		<g id="shape58-45" v:mID="58" v:groupContext="shape" transform="translate(326.554,-69.2224)">
			<title>工作表.58</title>
			<desc>4</desc>
			<v:textBlock v:margins="rect(1,1,1,1)" v:tabSpace="42.5197"/>
			<v:textRect cx="9.92126" cy="144.96" width="19.85" height="19.8425"/>
			<rect x="0" y="135.038" width="19.8425" height="19.8425" class="st1"/>
			<text x="7.92" y="147.36" class="st2" v:langID="2052"><v:paragraph v:horizAlign="1"/><v:tabList/>4</text>		</g>
		<g id="shape59-48" v:mID="59" v:groupContext="shape" transform="translate(346.397,-69.2224)">
			<title>工作表.59</title>
			<desc>1</desc>
			<v:textBlock v:margins="rect(1,1,1,1)" v:tabSpace="42.5197"/>
			<v:textRect cx="9.92126" cy="144.96" width="19.85" height="19.8425"/>
			<rect x="0" y="135.038" width="19.8425" height="19.8425" class="st1"/>
			<text x="7.92" y="147.36" class="st2" v:langID="2052"><v:paragraph v:horizAlign="1"/><v:tabList/>1</text>		</g>
		<g id="shape60-51" v:mID="60" v:groupContext="shape" transform="translate(227.342,-39.3798)">
			<title>工作表.60</title>
			<desc>0</desc>
			<v:textBlock v:margins="rect(1,1,1,1)" v:tabSpace="42.5197"/>
			<v:textRect cx="9.92126" cy="149.881" width="19.85" height="10"/>
			<rect x="0" y="144.881" width="19.8425" height="10" class="st4"/>
			<text x="7.92" y="152.28" class="st2" v:langID="2052"><v:paragraph v:horizAlign="1"/><v:tabList/>0</text>		</g>
		<g id="shape61-54" v:mID="61" v:groupContext="shape" transform="translate(247.184,-39.3798)">
			<title>工作表.61</title>
			<desc>1</desc>
			<v:textBlock v:margins="rect(1,1,1,1)" v:tabSpace="42.5197"/>
			<v:textRect cx="9.92126" cy="149.881" width="19.85" height="10"/>
			<rect x="0" y="144.881" width="19.8425" height="10" class="st4"/>
			<text x="7.92" y="152.28" class="st2" v:langID="2052"><v:paragraph v:horizAlign="1"/><v:tabList/>1</text>		</g>
		<g id="shape62-57" v:mID="62" v:groupContext="shape" transform="translate(267.027,-39.3798)">
			<title>工作表.62</title>
			<desc>2</desc>
			<v:textBlock v:margins="rect(1,1,1,1)" v:tabSpace="42.5197"/>
			<v:textRect cx="9.92126" cy="149.881" width="19.85" height="10"/>
			<rect x="0" y="144.881" width="19.8425" height="10" class="st4"/>
			<text x="7.92" y="152.28" class="st2" v:langID="2052"><v:paragraph v:horizAlign="1"/><v:tabList/>2</text>		</g>
		<g id="shape63-60" v:mID="63" v:groupContext="shape" transform="translate(286.869,-39.3798)">
			<title>工作表.63</title>
			<desc>3</desc>
			<v:textBlock v:margins="rect(1,1,1,1)" v:tabSpace="42.5197"/>
			<v:textRect cx="9.92126" cy="149.881" width="19.85" height="10"/>
			<rect x="0" y="144.881" width="19.8425" height="10" class="st4"/>
			<text x="7.92" y="152.28" class="st2" v:langID="2052"><v:paragraph v:horizAlign="1"/><v:tabList/>3</text>		</g>
		<g id="shape64-63" v:mID="64" v:groupContext="shape" transform="translate(306.712,-39.3798)">
			<title>工作表.64</title>
			<desc>4</desc>
			<v:textBlock v:margins="rect(1,1,1,1)" v:tabSpace="42.5197"/>
			<v:textRect cx="9.92126" cy="149.881" width="19.85" height="10"/>
			<rect x="0" y="144.881" width="19.8425" height="10" class="st4"/>
			<text x="7.92" y="152.28" class="st2" v:langID="2052"><v:paragraph v:horizAlign="1"/><v:tabList/>4</text>		</g>
		<g id="shape65-66" v:mID="65" v:groupContext="shape" transform="translate(326.554,-39.3798)">
			<title>工作表.65</title>
			<desc>5</desc>
			<v:textBlock v:margins="rect(1,1,1,1)" v:tabSpace="42.5197"/>
			<v:textRect cx="9.92126" cy="149.881" width="19.85" height="10"/>
			<rect x="0" y="144.881" width="19.8425" height="10" class="st4"/>
			<text x="7.92" y="152.28" class="st2" v:langID="2052"><v:paragraph v:horizAlign="1"/><v:tabList/>5</text>		</g>
		<g id="shape67-69" v:mID="67" v:groupContext="shape" transform="translate(346.397,-39.3798)">
			<title>工作表.67</title>
			<desc>6</desc>
			<v:textBlock v:margins="rect(1,1,1,1)" v:tabSpace="42.5197"/>
			<v:textRect cx="9.92126" cy="149.881" width="19.85" height="10"/>
			<rect x="0" y="144.881" width="19.8425" height="10" class="st4"/>
			<text x="7.92" y="152.28" class="st2" v:langID="2052"><v:paragraph v:horizAlign="1"/><v:tabList/>6</text>		</g>
		<g id="shape69-72" v:mID="69" v:groupContext="shape" transform="translate(102.617,-126.506)">
			<title>工作表.69</title>
			<desc>1</desc>
			<v:textBlock v:margins="rect(1,1,1,1)" v:tabSpace="42.5197"/>
			<v:textRect cx="9.92126" cy="149.881" width="19.85" height="10"/>
			<rect x="0" y="144.881" width="19.8425" height="10" class="st4"/>
			<text x="7.92" y="152.28" class="st2" v:langID="2052"><v:paragraph v:horizAlign="1"/><v:tabList/>1</text>		</g>
		<g id="shape70-75" v:mID="70" v:groupContext="shape" transform="translate(50.7963,-86.0728)">
			<title>工作表.70</title>
			<desc>2</desc>
			<v:textBlock v:margins="rect(1,1,1,1)" v:tabSpace="42.5197"/>
			<v:textRect cx="9.92126" cy="149.881" width="19.85" height="10"/>
			<rect x="0" y="144.881" width="19.8425" height="10" class="st4"/>
			<text x="7.92" y="152.28" class="st2" v:langID="2052"><v:paragraph v:horizAlign="1"/><v:tabList/>2</text>		</g>
		<g id="shape71-78" v:mID="71" v:groupContext="shape" transform="translate(154.438,-87.4901)">
			<title>工作表.71</title>
			<desc>3</desc>
			<v:textBlock v:margins="rect(1,1,1,1)" v:tabSpace="42.5197"/>
			<v:textRect cx="9.92126" cy="149.881" width="19.85" height="10"/>
			<rect x="0" y="144.881" width="19.8425" height="10" class="st4"/>
			<text x="7.92" y="152.28" class="st2" v:langID="2052"><v:paragraph v:horizAlign="1"/><v:tabList/>3</text>		</g>
		<g id="shape72-81" v:mID="72" v:groupContext="shape" v:layerMember="0" transform="translate(154.438,-67.7263)">
			<title>数据流程.72</title>
			<desc>7</desc>
			<v:custProps>
				<v:cp v:nameU="Cost" v:lbl="成本" v:type="7" v:format="@" v:langID="2052"/>
				<v:cp v:nameU="Duration" v:lbl="持续时间" v:type="2" v:langID="2052"/>
				<v:cp v:nameU="Resources" v:lbl="资源" v:langID="2052"/>
			</v:custProps>
			<v:userDefs>
				<v:ud v:nameU="visVersion" v:val="VT0(15):26"/>
			</v:userDefs>
			<v:textBlock v:margins="rect(1,1,1,1)" v:tabSpace="42.5197"/>
			<v:textRect cx="9.92126" cy="144.96" width="19.85" height="19.8425"/>
			<path d="M0 144.96 A9.92126 9.92126 0 0 1 19.84 144.96 A9.92126 9.92126 0 1 1 0 144.96 Z" class="st1"/>
			<text x="7.92" y="147.36" class="st2" v:langID="2052"><v:paragraph v:horizAlign="1"/><v:tabList/>7</text>		</g>
		<g id="shape73-84" v:mID="73" v:groupContext="shape" transform="translate(18.375,-38.6318)">
			<title>工作表.73</title>
			<desc>4</desc>
			<v:textBlock v:margins="rect(1,1,1,1)" v:tabSpace="42.5197"/>
			<v:textRect cx="9.92126" cy="149.881" width="19.85" height="10"/>
			<rect x="0" y="144.881" width="19.8425" height="10" class="st4"/>
			<text x="7.92" y="152.28" class="st2" v:langID="2052"><v:paragraph v:horizAlign="1"/><v:tabList/>4</text>		</g>
		<g id="shape74-87" v:mID="74" v:groupContext="shape" transform="translate(78.5226,-38.6318)">
			<title>工作表.74</title>
			<desc>5</desc>
			<v:textBlock v:margins="rect(1,1,1,1)" v:tabSpace="42.5197"/>
			<v:textRect cx="9.92126" cy="149.881" width="19.85" height="10"/>
			<rect x="0" y="144.881" width="19.8425" height="10" class="st4"/>
			<text x="7.92" y="152.28" class="st2" v:langID="2052"><v:paragraph v:horizAlign="1"/><v:tabList/>5</text>		</g>
		<g id="shape75-90" v:mID="75" v:groupContext="shape" transform="translate(122.46,-38.6318)">
			<title>工作表.75</title>
			<desc>6</desc>
			<v:textBlock v:margins="rect(1,1,1,1)" v:tabSpace="42.5197"/>
			<v:textRect cx="9.92126" cy="149.881" width="19.85" height="10"/>
			<rect x="0" y="144.881" width="19.8425" height="10" class="st4"/>
			<text x="7.92" y="152.28" class="st2" v:langID="2052"><v:paragraph v:horizAlign="1"/><v:tabList/>6</text>		</g>
		<g id="shape77-93" v:mID="77" v:groupContext="shape" transform="translate(257.105,-89.0649)">
			<title>工作表.77</title>
			<path d="M0 154.88 A15.1515 7.6179 13.71 0 1 19.84 154.88" class="st3"/>
		</g>
		<g id="shape78-96" v:mID="78" v:groupContext="shape" transform="translate(257.105,-89.0649)">
			<title>工作表.78</title>
			<path d="M-0 154.88 A30.4743 17.6964 18.43 0 1 39.4 154.88" class="st3"/>
		</g>
		<g id="shape79-99" v:mID="79" v:groupContext="shape" transform="translate(296.223,-89.0649)">
			<title>工作表.79</title>
			<path d="M0 154.88 A45.4327 18.1038 9.46 0 1 60.09 154.88" class="st3"/>
		</g>
		<g id="shape80-102" v:mID="80" v:groupContext="shape" transform="translate(276.381,-66.3877)">
			<title>工作表.80</title>
			<path d="M0 152.05 A28.7439 9.58333 -2.86 0 0 40.25 152.05" class="st3"/>
		</g>
		<g id="shape82-105" v:mID="82" v:groupContext="shape" transform="translate(276.101,-62.8163) rotate(-0.0316745)">
			<title>工作表.82</title>
			<path d="M0 148.51 A43.1337 21.5051 -5.07 0 0 60.29 148.51" class="st3"/>
		</g>
	</g>
</svg>
